<?xml version="1.0" encoding="utf-8" standalone="no"?>
<!DOCTYPE svg PUBLIC "-//W3C//DTD SVG 1.1//EN"
  "http://www.w3.org/Graphics/SVG/1.1/DTD/svg11.dtd">
<svg xmlns:xlink="http://www.w3.org/1999/xlink" width="397.6075pt" height="312.30825pt" viewBox="0 0 397.6075 312.30825" xmlns="http://www.w3.org/2000/svg" version="1.1">
 <metadata>
  <rdf:RDF xmlns:dc="http://purl.org/dc/elements/1.1/" xmlns:cc="http://creativecommons.org/ns#" xmlns:rdf="http://www.w3.org/1999/02/22-rdf-syntax-ns#">
   <cc:Work>
    <dc:type rdf:resource="http://purl.org/dc/dcmitype/StillImage"/>
    <dc:date>2025-10-14T17:23:18.062169</dc:date>
    <dc:format>image/svg+xml</dc:format>
    <dc:creator>
     <cc:Agent>
      <dc:title>Matplotlib v3.10.7, https://matplotlib.org/</dc:title>
     </cc:Agent>
    </dc:creator>
   </cc:Work>
  </rdf:RDF>
 </metadata>
 <defs>
  <style type="text/css">*{stroke-linejoin: round; stroke-linecap: butt}</style>
 </defs>
 <g id="figure_1">
  <g id="patch_1">
   <path d="M 0 312.30825 
L 397.6075 312.30825 
L 397.6075 0 
L 0 0 
z
" style="fill: #ffffff"/>
  </g>
  <g id="axes_1">
   <g id="patch_2">
    <path d="M 33.2875 288.430125 
L 390.4075 288.430125 
L 390.4075 22.318125 
L 33.2875 22.318125 
z
" style="fill: #ffffff"/>
   </g>
   <g id="patch_3">
    <path d="M 49.520227 288.430125 
L 57.636591 288.430125 
L 57.636591 34.990125 
L 49.520227 34.990125 
z
" clip-path="url(#p1ad6c3bebb)" style="fill: #1f77b4"/>
   </g>
   <g id="patch_4">
    <path d="M 57.636591 288.430125 
L 65.752955 288.430125 
L 65.752955 180.922512 
L 57.636591 180.922512 
z
" clip-path="url(#p1ad6c3bebb)" style="fill: #1f77b4"/>
   </g>
   <g id="patch_5">
    <path d="M 65.752955 288.430125 
L 73.869318 288.430125 
L 73.869318 257.77206 
L 65.752955 257.77206 
z
" clip-path="url(#p1ad6c3bebb)" style="fill: #1f77b4"/>
   </g>
   <g id="patch_6">
    <path d="M 73.869318 288.430125 
L 81.985682 288.430125 
L 81.985682 283.524835 
L 73.869318 283.524835 
z
" clip-path="url(#p1ad6c3bebb)" style="fill: #1f77b4"/>
   </g>
   <g id="patch_7">
    <path d="M 81.985682 288.430125 
L 90.102045 288.430125 
L 90.102045 285.97748 
L 81.985682 285.97748 
z
" clip-path="url(#p1ad6c3bebb)" style="fill: #1f77b4"/>
   </g>
   <g id="patch_8">
    <path d="M 90.102045 288.430125 
L 98.218409 288.430125 
L 98.218409 283.524835 
L 90.102045 283.524835 
z
" clip-path="url(#p1ad6c3bebb)" style="fill: #1f77b4"/>
   </g>
   <g id="patch_9">
    <path d="M 98.218409 288.430125 
L 106.334773 288.430125 
L 106.334773 288.430125 
L 98.218409 288.430125 
z
" clip-path="url(#p1ad6c3bebb)" style="fill: #1f77b4"/>
   </g>
   <g id="patch_10">
    <path d="M 106.334773 288.430125 
L 114.451136 288.430125 
L 114.451136 287.612577 
L 106.334773 287.612577 
z
" clip-path="url(#p1ad6c3bebb)" style="fill: #1f77b4"/>
   </g>
   <g id="patch_11">
    <path d="M 114.451136 288.430125 
L 122.5675 288.430125 
L 122.5675 288.430125 
L 114.451136 288.430125 
z
" clip-path="url(#p1ad6c3bebb)" style="fill: #1f77b4"/>
   </g>
   <g id="patch_12">
    <path d="M 122.5675 288.430125 
L 130.683864 288.430125 
L 130.683864 287.612577 
L 122.5675 287.612577 
z
" clip-path="url(#p1ad6c3bebb)" style="fill: #1f77b4"/>
   </g>
   <g id="patch_13">
    <path d="M 130.683864 288.430125 
L 138.800227 288.430125 
L 138.800227 288.430125 
L 130.683864 288.430125 
z
" clip-path="url(#p1ad6c3bebb)" style="fill: #1f77b4"/>
   </g>
   <g id="patch_14">
    <path d="M 138.800227 288.430125 
L 146.916591 288.430125 
L 146.916591 288.021351 
L 138.800227 288.021351 
z
" clip-path="url(#p1ad6c3bebb)" style="fill: #1f77b4"/>
   </g>
   <g id="patch_15">
    <path d="M 146.916591 288.430125 
L 155.032955 288.430125 
L 155.032955 288.430125 
L 146.916591 288.430125 
z
" clip-path="url(#p1ad6c3bebb)" style="fill: #1f77b4"/>
   </g>
   <g id="patch_16">
    <path d="M 155.032955 288.430125 
L 163.149318 288.430125 
L 163.149318 287.612577 
L 155.032955 287.612577 
z
" clip-path="url(#p1ad6c3bebb)" style="fill: #1f77b4"/>
   </g>
   <g id="patch_17">
    <path d="M 163.149318 288.430125 
L 171.265682 288.430125 
L 171.265682 288.430125 
L 163.149318 288.430125 
z
" clip-path="url(#p1ad6c3bebb)" style="fill: #1f77b4"/>
   </g>
   <g id="patch_18">
    <path d="M 171.265682 288.430125 
L 179.382045 288.430125 
L 179.382045 287.612577 
L 171.265682 287.612577 
z
" clip-path="url(#p1ad6c3bebb)" style="fill: #1f77b4"/>
   </g>
   <g id="patch_19">
    <path d="M 179.382045 288.430125 
L 187.498409 288.430125 
L 187.498409 288.430125 
L 179.382045 288.430125 
z
" clip-path="url(#p1ad6c3bebb)" style="fill: #1f77b4"/>
   </g>
   <g id="patch_20">
    <path d="M 187.498409 288.430125 
L 195.614773 288.430125 
L 195.614773 288.430125 
L 187.498409 288.430125 
z
" clip-path="url(#p1ad6c3bebb)" style="fill: #1f77b4"/>
   </g>
   <g id="patch_21">
    <path d="M 195.614773 288.430125 
L 203.731136 288.430125 
L 203.731136 288.430125 
L 195.614773 288.430125 
z
" clip-path="url(#p1ad6c3bebb)" style="fill: #1f77b4"/>
   </g>
   <g id="patch_22">
    <path d="M 203.731136 288.430125 
L 211.8475 288.430125 
L 211.8475 288.430125 
L 203.731136 288.430125 
z
" clip-path="url(#p1ad6c3bebb)" style="fill: #1f77b4"/>
   </g>
   <g id="patch_23">
    <path d="M 211.8475 288.430125 
L 219.963864 288.430125 
L 219.963864 288.430125 
L 211.8475 288.430125 
z
" clip-path="url(#p1ad6c3bebb)" style="fill: #1f77b4"/>
   </g>
   <g id="patch_24">
    <path d="M 219.963864 288.430125 
L 228.080227 288.430125 
L 228.080227 288.430125 
L 219.963864 288.430125 
z
" clip-path="url(#p1ad6c3bebb)" style="fill: #1f77b4"/>
   </g>
   <g id="patch_25">
    <path d="M 228.080227 288.430125 
L 236.196591 288.430125 
L 236.196591 288.430125 
L 228.080227 288.430125 
z
" clip-path="url(#p1ad6c3bebb)" style="fill: #1f77b4"/>
   </g>
   <g id="patch_26">
    <path d="M 236.196591 288.430125 
L 244.312955 288.430125 
L 244.312955 288.430125 
L 236.196591 288.430125 
z
" clip-path="url(#p1ad6c3bebb)" style="fill: #1f77b4"/>
   </g>
   <g id="patch_27">
    <path d="M 244.312955 288.430125 
L 252.429318 288.430125 
L 252.429318 288.430125 
L 244.312955 288.430125 
z
" clip-path="url(#p1ad6c3bebb)" style="fill: #1f77b4"/>
   </g>
   <g id="patch_28">
    <path d="M 252.429318 288.430125 
L 260.545682 288.430125 
L 260.545682 288.430125 
L 252.429318 288.430125 
z
" clip-path="url(#p1ad6c3bebb)" style="fill: #1f77b4"/>
   </g>
   <g id="patch_29">
    <path d="M 260.545682 288.430125 
L 268.662045 288.430125 
L 268.662045 288.430125 
L 260.545682 288.430125 
z
" clip-path="url(#p1ad6c3bebb)" style="fill: #1f77b4"/>
   </g>
   <g id="patch_30">
    <path d="M 268.662045 288.430125 
L 276.778409 288.430125 
L 276.778409 288.430125 
L 268.662045 288.430125 
z
" clip-path="url(#p1ad6c3bebb)" style="fill: #1f77b4"/>
   </g>
   <g id="patch_31">
    <path d="M 276.778409 288.430125 
L 284.894773 288.430125 
L 284.894773 288.430125 
L 276.778409 288.430125 
z
" clip-path="url(#p1ad6c3bebb)" style="fill: #1f77b4"/>
   </g>
   <g id="patch_32">
    <path d="M 284.894773 288.430125 
L 293.011136 288.430125 
L 293.011136 288.430125 
L 284.894773 288.430125 
z
" clip-path="url(#p1ad6c3bebb)" style="fill: #1f77b4"/>
   </g>
   <g id="patch_33">
    <path d="M 293.011136 288.430125 
L 301.1275 288.430125 
L 301.1275 288.021351 
L 293.011136 288.021351 
z
" clip-path="url(#p1ad6c3bebb)" style="fill: #1f77b4"/>
   </g>
   <g id="patch_34">
    <path d="M 301.1275 288.430125 
L 309.243864 288.430125 
L 309.243864 288.430125 
L 301.1275 288.430125 
z
" clip-path="url(#p1ad6c3bebb)" style="fill: #1f77b4"/>
   </g>
   <g id="patch_35">
    <path d="M 309.243864 288.430125 
L 317.360227 288.430125 
L 317.360227 288.430125 
L 309.243864 288.430125 
z
" clip-path="url(#p1ad6c3bebb)" style="fill: #1f77b4"/>
   </g>
   <g id="patch_36">
    <path d="M 317.360227 288.430125 
L 325.476591 288.430125 
L 325.476591 288.430125 
L 317.360227 288.430125 
z
" clip-path="url(#p1ad6c3bebb)" style="fill: #1f77b4"/>
   </g>
   <g id="patch_37">
    <path d="M 325.476591 288.430125 
L 333.592955 288.430125 
L 333.592955 288.430125 
L 325.476591 288.430125 
z
" clip-path="url(#p1ad6c3bebb)" style="fill: #1f77b4"/>
   </g>
   <g id="patch_38">
    <path d="M 333.592955 288.430125 
L 341.709318 288.430125 
L 341.709318 288.430125 
L 333.592955 288.430125 
z
" clip-path="url(#p1ad6c3bebb)" style="fill: #1f77b4"/>
   </g>
   <g id="patch_39">
    <path d="M 341.709318 288.430125 
L 349.825682 288.430125 
L 349.825682 288.430125 
L 341.709318 288.430125 
z
" clip-path="url(#p1ad6c3bebb)" style="fill: #1f77b4"/>
   </g>
   <g id="patch_40">
    <path d="M 349.825682 288.430125 
L 357.942045 288.430125 
L 357.942045 288.430125 
L 349.825682 288.430125 
z
" clip-path="url(#p1ad6c3bebb)" style="fill: #1f77b4"/>
   </g>
   <g id="patch_41">
    <path d="M 357.942045 288.430125 
L 366.058409 288.430125 
L 366.058409 288.430125 
L 357.942045 288.430125 
z
" clip-path="url(#p1ad6c3bebb)" style="fill: #1f77b4"/>
   </g>
   <g id="patch_42">
    <path d="M 366.058409 288.430125 
L 374.174773 288.430125 
L 374.174773 287.612577 
L 366.058409 287.612577 
z
" clip-path="url(#p1ad6c3bebb)" style="fill: #1f77b4"/>
   </g>
   <g id="matplotlib.axis_1">
    <g id="xtick_1">
     <g id="line2d_1">
      <path d="M 45.625719 288.430125 
L 45.625719 22.318125 
" clip-path="url(#p1ad6c3bebb)" style="fill: none; stroke: #b0b0b0; stroke-width: 0.8; stroke-linecap: square"/>
     </g>
     <g id="line2d_2">
      <defs>
       <path id="m2dd7352439" d="M 0 0 
L 0 3.5 
" style="stroke: #000000; stroke-width: 0.8"/>
      </defs>
      <g>
       <use xlink:href="#m2dd7352439" x="45.625719" y="288.430125" style="stroke: #000000; stroke-width: 0.8"/>
      </g>
     </g>
     <g id="text_1">
      <!-- 0 -->
      <g transform="translate(42.444469 303.028562) scale(0.1 -0.1)">
       <defs>
        <path id="DejaVuSans-30" d="M 2034 4250 
Q 1547 4250 1301 3770 
Q 1056 3291 1056 2328 
Q 1056 1369 1301 889 
Q 1547 409 2034 409 
Q 2525 409 2770 889 
Q 3016 1369 3016 2328 
Q 3016 3291 2770 3770 
Q 2525 4250 2034 4250 
z
M 2034 4750 
Q 2819 4750 3233 4129 
Q 3647 3509 3647 2328 
Q 3647 1150 3233 529 
Q 2819 -91 2034 -91 
Q 1250 -91 836 529 
Q 422 1150 422 2328 
Q 422 3509 836 4129 
Q 1250 4750 2034 4750 
z
" transform="scale(0.015625)"/>
       </defs>
       <use xlink:href="#DejaVuSans-30"/>
      </g>
     </g>
    </g>
    <g id="xtick_2">
     <g id="line2d_3">
      <path d="M 85.692677 288.430125 
L 85.692677 22.318125 
" clip-path="url(#p1ad6c3bebb)" style="fill: none; stroke: #b0b0b0; stroke-width: 0.8; stroke-linecap: square"/>
     </g>
     <g id="line2d_4">
      <g>
       <use xlink:href="#m2dd7352439" x="85.692677" y="288.430125" style="stroke: #000000; stroke-width: 0.8"/>
      </g>
     </g>
     <g id="text_2">
      <!-- 2500 -->
      <g transform="translate(72.967677 303.028562) scale(0.1 -0.1)">
       <defs>
        <path id="DejaVuSans-32" d="M 1228 531 
L 3431 531 
L 3431 0 
L 469 0 
L 469 531 
Q 828 903 1448 1529 
Q 2069 2156 2228 2338 
Q 2531 2678 2651 2914 
Q 2772 3150 2772 3378 
Q 2772 3750 2511 3984 
Q 2250 4219 1831 4219 
Q 1534 4219 1204 4116 
Q 875 4013 500 3803 
L 500 4441 
Q 881 4594 1212 4672 
Q 1544 4750 1819 4750 
Q 2544 4750 2975 4387 
Q 3406 4025 3406 3419 
Q 3406 3131 3298 2873 
Q 3191 2616 2906 2266 
Q 2828 2175 2409 1742 
Q 1991 1309 1228 531 
z
" transform="scale(0.015625)"/>
        <path id="DejaVuSans-35" d="M 691 4666 
L 3169 4666 
L 3169 4134 
L 1269 4134 
L 1269 2991 
Q 1406 3038 1543 3061 
Q 1681 3084 1819 3084 
Q 2600 3084 3056 2656 
Q 3513 2228 3513 1497 
Q 3513 744 3044 326 
Q 2575 -91 1722 -91 
Q 1428 -91 1123 -41 
Q 819 9 494 109 
L 494 744 
Q 775 591 1075 516 
Q 1375 441 1709 441 
Q 2250 441 2565 725 
Q 2881 1009 2881 1497 
Q 2881 1984 2565 2268 
Q 2250 2553 1709 2553 
Q 1456 2553 1204 2497 
Q 953 2441 691 2322 
L 691 4666 
z
" transform="scale(0.015625)"/>
       </defs>
       <use xlink:href="#DejaVuSans-32"/>
       <use xlink:href="#DejaVuSans-35" transform="translate(63.623047 0)"/>
       <use xlink:href="#DejaVuSans-30" transform="translate(127.246094 0)"/>
       <use xlink:href="#DejaVuSans-30" transform="translate(190.869141 0)"/>
      </g>
     </g>
    </g>
    <g id="xtick_3">
     <g id="line2d_5">
      <path d="M 125.759635 288.430125 
L 125.759635 22.318125 
" clip-path="url(#p1ad6c3bebb)" style="fill: none; stroke: #b0b0b0; stroke-width: 0.8; stroke-linecap: square"/>
     </g>
     <g id="line2d_6">
      <g>
       <use xlink:href="#m2dd7352439" x="125.759635" y="288.430125" style="stroke: #000000; stroke-width: 0.8"/>
      </g>
     </g>
     <g id="text_3">
      <!-- 5000 -->
      <g transform="translate(113.034635 303.028562) scale(0.1 -0.1)">
       <use xlink:href="#DejaVuSans-35"/>
       <use xlink:href="#DejaVuSans-30" transform="translate(63.623047 0)"/>
       <use xlink:href="#DejaVuSans-30" transform="translate(127.246094 0)"/>
       <use xlink:href="#DejaVuSans-30" transform="translate(190.869141 0)"/>
      </g>
     </g>
    </g>
    <g id="xtick_4">
     <g id="line2d_7">
      <path d="M 165.826592 288.430125 
L 165.826592 22.318125 
" clip-path="url(#p1ad6c3bebb)" style="fill: none; stroke: #b0b0b0; stroke-width: 0.8; stroke-linecap: square"/>
     </g>
     <g id="line2d_8">
      <g>
       <use xlink:href="#m2dd7352439" x="165.826592" y="288.430125" style="stroke: #000000; stroke-width: 0.8"/>
      </g>
     </g>
     <g id="text_4">
      <!-- 7500 -->
      <g transform="translate(153.101592 303.028562) scale(0.1 -0.1)">
       <defs>
        <path id="DejaVuSans-37" d="M 525 4666 
L 3525 4666 
L 3525 4397 
L 1831 0 
L 1172 0 
L 2766 4134 
L 525 4134 
L 525 4666 
z
" transform="scale(0.015625)"/>
       </defs>
       <use xlink:href="#DejaVuSans-37"/>
       <use xlink:href="#DejaVuSans-35" transform="translate(63.623047 0)"/>
       <use xlink:href="#DejaVuSans-30" transform="translate(127.246094 0)"/>
       <use xlink:href="#DejaVuSans-30" transform="translate(190.869141 0)"/>
      </g>
     </g>
    </g>
    <g id="xtick_5">
     <g id="line2d_9">
      <path d="M 205.89355 288.430125 
L 205.89355 22.318125 
" clip-path="url(#p1ad6c3bebb)" style="fill: none; stroke: #b0b0b0; stroke-width: 0.8; stroke-linecap: square"/>
     </g>
     <g id="line2d_10">
      <g>
       <use xlink:href="#m2dd7352439" x="205.89355" y="288.430125" style="stroke: #000000; stroke-width: 0.8"/>
      </g>
     </g>
     <g id="text_5">
      <!-- 10000 -->
      <g transform="translate(189.9873 303.028562) scale(0.1 -0.1)">
       <defs>
        <path id="DejaVuSans-31" d="M 794 531 
L 1825 531 
L 1825 4091 
L 703 3866 
L 703 4441 
L 1819 4666 
L 2450 4666 
L 2450 531 
L 3481 531 
L 3481 0 
L 794 0 
L 794 531 
z
" transform="scale(0.015625)"/>
       </defs>
       <use xlink:href="#DejaVuSans-31"/>
       <use xlink:href="#DejaVuSans-30" transform="translate(63.623047 0)"/>
       <use xlink:href="#DejaVuSans-30" transform="translate(127.246094 0)"/>
       <use xlink:href="#DejaVuSans-30" transform="translate(190.869141 0)"/>
       <use xlink:href="#DejaVuSans-30" transform="translate(254.492188 0)"/>
      </g>
     </g>
    </g>
    <g id="xtick_6">
     <g id="line2d_11">
      <path d="M 245.960508 288.430125 
L 245.960508 22.318125 
" clip-path="url(#p1ad6c3bebb)" style="fill: none; stroke: #b0b0b0; stroke-width: 0.8; stroke-linecap: square"/>
     </g>
     <g id="line2d_12">
      <g>
       <use xlink:href="#m2dd7352439" x="245.960508" y="288.430125" style="stroke: #000000; stroke-width: 0.8"/>
      </g>
     </g>
     <g id="text_6">
      <!-- 12500 -->
      <g transform="translate(230.054258 303.028562) scale(0.1 -0.1)">
       <use xlink:href="#DejaVuSans-31"/>
       <use xlink:href="#DejaVuSans-32" transform="translate(63.623047 0)"/>
       <use xlink:href="#DejaVuSans-35" transform="translate(127.246094 0)"/>
       <use xlink:href="#DejaVuSans-30" transform="translate(190.869141 0)"/>
       <use xlink:href="#DejaVuSans-30" transform="translate(254.492188 0)"/>
      </g>
     </g>
    </g>
    <g id="xtick_7">
     <g id="line2d_13">
      <path d="M 286.027466 288.430125 
L 286.027466 22.318125 
" clip-path="url(#p1ad6c3bebb)" style="fill: none; stroke: #b0b0b0; stroke-width: 0.8; stroke-linecap: square"/>
     </g>
     <g id="line2d_14">
      <g>
       <use xlink:href="#m2dd7352439" x="286.027466" y="288.430125" style="stroke: #000000; stroke-width: 0.8"/>
      </g>
     </g>
     <g id="text_7">
      <!-- 15000 -->
      <g transform="translate(270.121216 303.028562) scale(0.1 -0.1)">
       <use xlink:href="#DejaVuSans-31"/>
       <use xlink:href="#DejaVuSans-35" transform="translate(63.623047 0)"/>
       <use xlink:href="#DejaVuSans-30" transform="translate(127.246094 0)"/>
       <use xlink:href="#DejaVuSans-30" transform="translate(190.869141 0)"/>
       <use xlink:href="#DejaVuSans-30" transform="translate(254.492188 0)"/>
      </g>
     </g>
    </g>
    <g id="xtick_8">
     <g id="line2d_15">
      <path d="M 326.094423 288.430125 
L 326.094423 22.318125 
" clip-path="url(#p1ad6c3bebb)" style="fill: none; stroke: #b0b0b0; stroke-width: 0.8; stroke-linecap: square"/>
     </g>
     <g id="line2d_16">
      <g>
       <use xlink:href="#m2dd7352439" x="326.094423" y="288.430125" style="stroke: #000000; stroke-width: 0.8"/>
      </g>
     </g>
     <g id="text_8">
      <!-- 17500 -->
      <g transform="translate(310.188173 303.028562) scale(0.1 -0.1)">
       <use xlink:href="#DejaVuSans-31"/>
       <use xlink:href="#DejaVuSans-37" transform="translate(63.623047 0)"/>
       <use xlink:href="#DejaVuSans-35" transform="translate(127.246094 0)"/>
       <use xlink:href="#DejaVuSans-30" transform="translate(190.869141 0)"/>
       <use xlink:href="#DejaVuSans-30" transform="translate(254.492188 0)"/>
      </g>
     </g>
    </g>
    <g id="xtick_9">
     <g id="line2d_17">
      <path d="M 366.161381 288.430125 
L 366.161381 22.318125 
" clip-path="url(#p1ad6c3bebb)" style="fill: none; stroke: #b0b0b0; stroke-width: 0.8; stroke-linecap: square"/>
     </g>
     <g id="line2d_18">
      <g>
       <use xlink:href="#m2dd7352439" x="366.161381" y="288.430125" style="stroke: #000000; stroke-width: 0.8"/>
      </g>
     </g>
     <g id="text_9">
      <!-- 20000 -->
      <g transform="translate(350.255131 303.028562) scale(0.1 -0.1)">
       <use xlink:href="#DejaVuSans-32"/>
       <use xlink:href="#DejaVuSans-30" transform="translate(63.623047 0)"/>
       <use xlink:href="#DejaVuSans-30" transform="translate(127.246094 0)"/>
       <use xlink:href="#DejaVuSans-30" transform="translate(190.869141 0)"/>
       <use xlink:href="#DejaVuSans-30" transform="translate(254.492188 0)"/>
      </g>
     </g>
    </g>
   </g>
   <g id="matplotlib.axis_2">
    <g id="ytick_1">
     <g id="line2d_19">
      <path d="M 33.2875 288.430125 
L 390.4075 288.430125 
" clip-path="url(#p1ad6c3bebb)" style="fill: none; stroke: #b0b0b0; stroke-width: 0.8; stroke-linecap: square"/>
     </g>
     <g id="line2d_20">
      <defs>
       <path id="m3db7a9cdec" d="M 0 0 
L -3.5 0 
" style="stroke: #000000; stroke-width: 0.8"/>
      </defs>
      <g>
       <use xlink:href="#m3db7a9cdec" x="33.2875" y="288.430125" style="stroke: #000000; stroke-width: 0.8"/>
      </g>
     </g>
     <g id="text_10">
      <!-- 0 -->
      <g transform="translate(19.925 292.229344) scale(0.1 -0.1)">
       <use xlink:href="#DejaVuSans-30"/>
      </g>
     </g>
    </g>
    <g id="ytick_2">
     <g id="line2d_21">
      <path d="M 33.2875 247.552706 
L 390.4075 247.552706 
" clip-path="url(#p1ad6c3bebb)" style="fill: none; stroke: #b0b0b0; stroke-width: 0.8; stroke-linecap: square"/>
     </g>
     <g id="line2d_22">
      <g>
       <use xlink:href="#m3db7a9cdec" x="33.2875" y="247.552706" style="stroke: #000000; stroke-width: 0.8"/>
      </g>
     </g>
     <g id="text_11">
      <!-- 100 -->
      <g transform="translate(7.2 251.351924) scale(0.1 -0.1)">
       <use xlink:href="#DejaVuSans-31"/>
       <use xlink:href="#DejaVuSans-30" transform="translate(63.623047 0)"/>
       <use xlink:href="#DejaVuSans-30" transform="translate(127.246094 0)"/>
      </g>
     </g>
    </g>
    <g id="ytick_3">
     <g id="line2d_23">
      <path d="M 33.2875 206.675286 
L 390.4075 206.675286 
" clip-path="url(#p1ad6c3bebb)" style="fill: none; stroke: #b0b0b0; stroke-width: 0.8; stroke-linecap: square"/>
     </g>
     <g id="line2d_24">
      <g>
       <use xlink:href="#m3db7a9cdec" x="33.2875" y="206.675286" style="stroke: #000000; stroke-width: 0.8"/>
      </g>
     </g>
     <g id="text_12">
      <!-- 200 -->
      <g transform="translate(7.2 210.474505) scale(0.1 -0.1)">
       <use xlink:href="#DejaVuSans-32"/>
       <use xlink:href="#DejaVuSans-30" transform="translate(63.623047 0)"/>
       <use xlink:href="#DejaVuSans-30" transform="translate(127.246094 0)"/>
      </g>
     </g>
    </g>
    <g id="ytick_4">
     <g id="line2d_25">
      <path d="M 33.2875 165.797867 
L 390.4075 165.797867 
" clip-path="url(#p1ad6c3bebb)" style="fill: none; stroke: #b0b0b0; stroke-width: 0.8; stroke-linecap: square"/>
     </g>
     <g id="line2d_26">
      <g>
       <use xlink:href="#m3db7a9cdec" x="33.2875" y="165.797867" style="stroke: #000000; stroke-width: 0.8"/>
      </g>
     </g>
     <g id="text_13">
      <!-- 300 -->
      <g transform="translate(7.2 169.597086) scale(0.1 -0.1)">
       <defs>
        <path id="DejaVuSans-33" d="M 2597 2516 
Q 3050 2419 3304 2112 
Q 3559 1806 3559 1356 
Q 3559 666 3084 287 
Q 2609 -91 1734 -91 
Q 1441 -91 1130 -33 
Q 819 25 488 141 
L 488 750 
Q 750 597 1062 519 
Q 1375 441 1716 441 
Q 2309 441 2620 675 
Q 2931 909 2931 1356 
Q 2931 1769 2642 2001 
Q 2353 2234 1838 2234 
L 1294 2234 
L 1294 2753 
L 1863 2753 
Q 2328 2753 2575 2939 
Q 2822 3125 2822 3475 
Q 2822 3834 2567 4026 
Q 2313 4219 1838 4219 
Q 1578 4219 1281 4162 
Q 984 4106 628 3988 
L 628 4550 
Q 988 4650 1302 4700 
Q 1616 4750 1894 4750 
Q 2613 4750 3031 4423 
Q 3450 4097 3450 3541 
Q 3450 3153 3228 2886 
Q 3006 2619 2597 2516 
z
" transform="scale(0.015625)"/>
       </defs>
       <use xlink:href="#DejaVuSans-33"/>
       <use xlink:href="#DejaVuSans-30" transform="translate(63.623047 0)"/>
       <use xlink:href="#DejaVuSans-30" transform="translate(127.246094 0)"/>
      </g>
     </g>
    </g>
    <g id="ytick_5">
     <g id="line2d_27">
      <path d="M 33.2875 124.920448 
L 390.4075 124.920448 
" clip-path="url(#p1ad6c3bebb)" style="fill: none; stroke: #b0b0b0; stroke-width: 0.8; stroke-linecap: square"/>
     </g>
     <g id="line2d_28">
      <g>
       <use xlink:href="#m3db7a9cdec" x="33.2875" y="124.920448" style="stroke: #000000; stroke-width: 0.8"/>
      </g>
     </g>
     <g id="text_14">
      <!-- 400 -->
      <g transform="translate(7.2 128.719666) scale(0.1 -0.1)">
       <defs>
        <path id="DejaVuSans-34" d="M 2419 4116 
L 825 1625 
L 2419 1625 
L 2419 4116 
z
M 2253 4666 
L 3047 4666 
L 3047 1625 
L 3713 1625 
L 3713 1100 
L 3047 1100 
L 3047 0 
L 2419 0 
L 2419 1100 
L 313 1100 
L 313 1709 
L 2253 4666 
z
" transform="scale(0.015625)"/>
       </defs>
       <use xlink:href="#DejaVuSans-34"/>
       <use xlink:href="#DejaVuSans-30" transform="translate(63.623047 0)"/>
       <use xlink:href="#DejaVuSans-30" transform="translate(127.246094 0)"/>
      </g>
     </g>
    </g>
    <g id="ytick_6">
     <g id="line2d_29">
      <path d="M 33.2875 84.043028 
L 390.4075 84.043028 
" clip-path="url(#p1ad6c3bebb)" style="fill: none; stroke: #b0b0b0; stroke-width: 0.8; stroke-linecap: square"/>
     </g>
     <g id="line2d_30">
      <g>
       <use xlink:href="#m3db7a9cdec" x="33.2875" y="84.043028" style="stroke: #000000; stroke-width: 0.8"/>
      </g>
     </g>
     <g id="text_15">
      <!-- 500 -->
      <g transform="translate(7.2 87.842247) scale(0.1 -0.1)">
       <use xlink:href="#DejaVuSans-35"/>
       <use xlink:href="#DejaVuSans-30" transform="translate(63.623047 0)"/>
       <use xlink:href="#DejaVuSans-30" transform="translate(127.246094 0)"/>
      </g>
     </g>
    </g>
    <g id="ytick_7">
     <g id="line2d_31">
      <path d="M 33.2875 43.165609 
L 390.4075 43.165609 
" clip-path="url(#p1ad6c3bebb)" style="fill: none; stroke: #b0b0b0; stroke-width: 0.8; stroke-linecap: square"/>
     </g>
     <g id="line2d_32">
      <g>
       <use xlink:href="#m3db7a9cdec" x="33.2875" y="43.165609" style="stroke: #000000; stroke-width: 0.8"/>
      </g>
     </g>
     <g id="text_16">
      <!-- 600 -->
      <g transform="translate(7.2 46.964828) scale(0.1 -0.1)">
       <defs>
        <path id="DejaVuSans-36" d="M 2113 2584 
Q 1688 2584 1439 2293 
Q 1191 2003 1191 1497 
Q 1191 994 1439 701 
Q 1688 409 2113 409 
Q 2538 409 2786 701 
Q 3034 994 3034 1497 
Q 3034 2003 2786 2293 
Q 2538 2584 2113 2584 
z
M 3366 4563 
L 3366 3988 
Q 3128 4100 2886 4159 
Q 2644 4219 2406 4219 
Q 1781 4219 1451 3797 
Q 1122 3375 1075 2522 
Q 1259 2794 1537 2939 
Q 1816 3084 2150 3084 
Q 2853 3084 3261 2657 
Q 3669 2231 3669 1497 
Q 3669 778 3244 343 
Q 2819 -91 2113 -91 
Q 1303 -91 875 529 
Q 447 1150 447 2328 
Q 447 3434 972 4092 
Q 1497 4750 2381 4750 
Q 2619 4750 2861 4703 
Q 3103 4656 3366 4563 
z
" transform="scale(0.015625)"/>
       </defs>
       <use xlink:href="#DejaVuSans-36"/>
       <use xlink:href="#DejaVuSans-30" transform="translate(63.623047 0)"/>
       <use xlink:href="#DejaVuSans-30" transform="translate(127.246094 0)"/>
      </g>
     </g>
    </g>
   </g>
   <g id="patch_43">
    <path d="M 33.2875 288.430125 
L 33.2875 22.318125 
" style="fill: none; stroke: #000000; stroke-width: 0.8; stroke-linejoin: miter; stroke-linecap: square"/>
   </g>
   <g id="patch_44">
    <path d="M 390.4075 288.430125 
L 390.4075 22.318125 
" style="fill: none; stroke: #000000; stroke-width: 0.8; stroke-linejoin: miter; stroke-linecap: square"/>
   </g>
   <g id="patch_45">
    <path d="M 33.2875 288.430125 
L 390.4075 288.430125 
" style="fill: none; stroke: #000000; stroke-width: 0.8; stroke-linejoin: miter; stroke-linecap: square"/>
   </g>
   <g id="patch_46">
    <path d="M 33.2875 22.318125 
L 390.4075 22.318125 
" style="fill: none; stroke: #000000; stroke-width: 0.8; stroke-linejoin: miter; stroke-linecap: square"/>
   </g>
   <g id="text_17">
    <!-- Distribution of RATE -->
    <g transform="translate(152.223438 16.318125) scale(0.12 -0.12)">
     <defs>
      <path id="DejaVuSans-44" d="M 1259 4147 
L 1259 519 
L 2022 519 
Q 2988 519 3436 956 
Q 3884 1394 3884 2338 
Q 3884 3275 3436 3711 
Q 2988 4147 2022 4147 
L 1259 4147 
z
M 628 4666 
L 1925 4666 
Q 3281 4666 3915 4102 
Q 4550 3538 4550 2338 
Q 4550 1131 3912 565 
Q 3275 0 1925 0 
L 628 0 
L 628 4666 
z
" transform="scale(0.015625)"/>
      <path id="DejaVuSans-69" d="M 603 3500 
L 1178 3500 
L 1178 0 
L 603 0 
L 603 3500 
z
M 603 4863 
L 1178 4863 
L 1178 4134 
L 603 4134 
L 603 4863 
z
" transform="scale(0.015625)"/>
      <path id="DejaVuSans-73" d="M 2834 3397 
L 2834 2853 
Q 2591 2978 2328 3040 
Q 2066 3103 1784 3103 
Q 1356 3103 1142 2972 
Q 928 2841 928 2578 
Q 928 2378 1081 2264 
Q 1234 2150 1697 2047 
L 1894 2003 
Q 2506 1872 2764 1633 
Q 3022 1394 3022 966 
Q 3022 478 2636 193 
Q 2250 -91 1575 -91 
Q 1294 -91 989 -36 
Q 684 19 347 128 
L 347 722 
Q 666 556 975 473 
Q 1284 391 1588 391 
Q 1994 391 2212 530 
Q 2431 669 2431 922 
Q 2431 1156 2273 1281 
Q 2116 1406 1581 1522 
L 1381 1569 
Q 847 1681 609 1914 
Q 372 2147 372 2553 
Q 372 3047 722 3315 
Q 1072 3584 1716 3584 
Q 2034 3584 2315 3537 
Q 2597 3491 2834 3397 
z
" transform="scale(0.015625)"/>
      <path id="DejaVuSans-74" d="M 1172 4494 
L 1172 3500 
L 2356 3500 
L 2356 3053 
L 1172 3053 
L 1172 1153 
Q 1172 725 1289 603 
Q 1406 481 1766 481 
L 2356 481 
L 2356 0 
L 1766 0 
Q 1100 0 847 248 
Q 594 497 594 1153 
L 594 3053 
L 172 3053 
L 172 3500 
L 594 3500 
L 594 4494 
L 1172 4494 
z
" transform="scale(0.015625)"/>
      <path id="DejaVuSans-72" d="M 2631 2963 
Q 2534 3019 2420 3045 
Q 2306 3072 2169 3072 
Q 1681 3072 1420 2755 
Q 1159 2438 1159 1844 
L 1159 0 
L 581 0 
L 581 3500 
L 1159 3500 
L 1159 2956 
Q 1341 3275 1631 3429 
Q 1922 3584 2338 3584 
Q 2397 3584 2469 3576 
Q 2541 3569 2628 3553 
L 2631 2963 
z
" transform="scale(0.015625)"/>
      <path id="DejaVuSans-62" d="M 3116 1747 
Q 3116 2381 2855 2742 
Q 2594 3103 2138 3103 
Q 1681 3103 1420 2742 
Q 1159 2381 1159 1747 
Q 1159 1113 1420 752 
Q 1681 391 2138 391 
Q 2594 391 2855 752 
Q 3116 1113 3116 1747 
z
M 1159 2969 
Q 1341 3281 1617 3432 
Q 1894 3584 2278 3584 
Q 2916 3584 3314 3078 
Q 3713 2572 3713 1747 
Q 3713 922 3314 415 
Q 2916 -91 2278 -91 
Q 1894 -91 1617 61 
Q 1341 213 1159 525 
L 1159 0 
L 581 0 
L 581 4863 
L 1159 4863 
L 1159 2969 
z
" transform="scale(0.015625)"/>
      <path id="DejaVuSans-75" d="M 544 1381 
L 544 3500 
L 1119 3500 
L 1119 1403 
Q 1119 906 1312 657 
Q 1506 409 1894 409 
Q 2359 409 2629 706 
Q 2900 1003 2900 1516 
L 2900 3500 
L 3475 3500 
L 3475 0 
L 2900 0 
L 2900 538 
Q 2691 219 2414 64 
Q 2138 -91 1772 -91 
Q 1169 -91 856 284 
Q 544 659 544 1381 
z
M 1991 3584 
L 1991 3584 
z
" transform="scale(0.015625)"/>
      <path id="DejaVuSans-6f" d="M 1959 3097 
Q 1497 3097 1228 2736 
Q 959 2375 959 1747 
Q 959 1119 1226 758 
Q 1494 397 1959 397 
Q 2419 397 2687 759 
Q 2956 1122 2956 1747 
Q 2956 2369 2687 2733 
Q 2419 3097 1959 3097 
z
M 1959 3584 
Q 2709 3584 3137 3096 
Q 3566 2609 3566 1747 
Q 3566 888 3137 398 
Q 2709 -91 1959 -91 
Q 1206 -91 779 398 
Q 353 888 353 1747 
Q 353 2609 779 3096 
Q 1206 3584 1959 3584 
z
" transform="scale(0.015625)"/>
      <path id="DejaVuSans-6e" d="M 3513 2113 
L 3513 0 
L 2938 0 
L 2938 2094 
Q 2938 2591 2744 2837 
Q 2550 3084 2163 3084 
Q 1697 3084 1428 2787 
Q 1159 2491 1159 1978 
L 1159 0 
L 581 0 
L 581 3500 
L 1159 3500 
L 1159 2956 
Q 1366 3272 1645 3428 
Q 1925 3584 2291 3584 
Q 2894 3584 3203 3211 
Q 3513 2838 3513 2113 
z
" transform="scale(0.015625)"/>
      <path id="DejaVuSans-20" transform="scale(0.015625)"/>
      <path id="DejaVuSans-66" d="M 2375 4863 
L 2375 4384 
L 1825 4384 
Q 1516 4384 1395 4259 
Q 1275 4134 1275 3809 
L 1275 3500 
L 2222 3500 
L 2222 3053 
L 1275 3053 
L 1275 0 
L 697 0 
L 697 3053 
L 147 3053 
L 147 3500 
L 697 3500 
L 697 3744 
Q 697 4328 969 4595 
Q 1241 4863 1831 4863 
L 2375 4863 
z
" transform="scale(0.015625)"/>
      <path id="DejaVuSans-52" d="M 2841 2188 
Q 3044 2119 3236 1894 
Q 3428 1669 3622 1275 
L 4263 0 
L 3584 0 
L 2988 1197 
Q 2756 1666 2539 1819 
Q 2322 1972 1947 1972 
L 1259 1972 
L 1259 0 
L 628 0 
L 628 4666 
L 2053 4666 
Q 2853 4666 3247 4331 
Q 3641 3997 3641 3322 
Q 3641 2881 3436 2590 
Q 3231 2300 2841 2188 
z
M 1259 4147 
L 1259 2491 
L 2053 2491 
Q 2509 2491 2742 2702 
Q 2975 2913 2975 3322 
Q 2975 3731 2742 3939 
Q 2509 4147 2053 4147 
L 1259 4147 
z
" transform="scale(0.015625)"/>
      <path id="DejaVuSans-41" d="M 2188 4044 
L 1331 1722 
L 3047 1722 
L 2188 4044 
z
M 1831 4666 
L 2547 4666 
L 4325 0 
L 3669 0 
L 3244 1197 
L 1141 1197 
L 716 0 
L 50 0 
L 1831 4666 
z
" transform="scale(0.015625)"/>
      <path id="DejaVuSans-54" d="M -19 4666 
L 3928 4666 
L 3928 4134 
L 2272 4134 
L 2272 0 
L 1638 0 
L 1638 4134 
L -19 4134 
L -19 4666 
z
" transform="scale(0.015625)"/>
      <path id="DejaVuSans-45" d="M 628 4666 
L 3578 4666 
L 3578 4134 
L 1259 4134 
L 1259 2753 
L 3481 2753 
L 3481 2222 
L 1259 2222 
L 1259 531 
L 3634 531 
L 3634 0 
L 628 0 
L 628 4666 
z
" transform="scale(0.015625)"/>
     </defs>
     <use xlink:href="#DejaVuSans-44"/>
     <use xlink:href="#DejaVuSans-69" transform="translate(77.001953 0)"/>
     <use xlink:href="#DejaVuSans-73" transform="translate(104.785156 0)"/>
     <use xlink:href="#DejaVuSans-74" transform="translate(156.884766 0)"/>
     <use xlink:href="#DejaVuSans-72" transform="translate(196.09375 0)"/>
     <use xlink:href="#DejaVuSans-69" transform="translate(237.207031 0)"/>
     <use xlink:href="#DejaVuSans-62" transform="translate(264.990234 0)"/>
     <use xlink:href="#DejaVuSans-75" transform="translate(328.466797 0)"/>
     <use xlink:href="#DejaVuSans-74" transform="translate(391.845703 0)"/>
     <use xlink:href="#DejaVuSans-69" transform="translate(431.054688 0)"/>
     <use xlink:href="#DejaVuSans-6f" transform="translate(458.837891 0)"/>
     <use xlink:href="#DejaVuSans-6e" transform="translate(520.019531 0)"/>
     <use xlink:href="#DejaVuSans-20" transform="translate(583.398438 0)"/>
     <use xlink:href="#DejaVuSans-6f" transform="translate(615.185547 0)"/>
     <use xlink:href="#DejaVuSans-66" transform="translate(676.367188 0)"/>
     <use xlink:href="#DejaVuSans-20" transform="translate(711.572266 0)"/>
     <use xlink:href="#DejaVuSans-52" transform="translate(743.359375 0)"/>
     <use xlink:href="#DejaVuSans-41" transform="translate(808.841797 0)"/>
     <use xlink:href="#DejaVuSans-54" transform="translate(869.5 0)"/>
     <use xlink:href="#DejaVuSans-45" transform="translate(930.583984 0)"/>
    </g>
   </g>
  </g>
 </g>
 <defs>
  <clipPath id="p1ad6c3bebb">
   <rect x="33.2875" y="22.318125" width="357.12" height="266.112"/>
  </clipPath>
 </defs>
</svg>
